<svg width="26" height="26" viewBox="0 0 26 26" fill="none" xmlns="http://www.w3.org/2000/svg">
<path d="M24.25 23H3V22.325L9.25 16.075L14 20.825C14.2342 21.0578 14.551 21.1885 14.8813 21.1885C15.2115 21.1885 15.5283 21.0578 15.7625 20.825L25.1375 11.45C25.2547 11.3338 25.3477 11.1955 25.4111 11.0432C25.4746 10.8909 25.5072 10.7275 25.5072 10.5625C25.5072 10.3975 25.4746 10.2341 25.4111 10.0818C25.3477 9.92945 25.2547 9.7912 25.1375 9.675C24.9033 9.44219 24.5865 9.31151 24.2562 9.31151C23.926 9.31151 23.6092 9.44219 23.375 9.675L14.875 18.175L10.1375 13.425C9.9033 13.1922 9.58648 13.0615 9.25625 13.0615C8.92602 13.0615 8.6092 13.1922 8.375 13.425L3 18.7875V12.325L9.25 6.075L12.75 9.575C12.9842 9.80781 13.301 9.93849 13.6313 9.93849C13.9615 9.93849 14.2783 9.80781 14.5125 9.575L20.5 3.5875L23.2375 6.325C23.4729 6.55872 23.7915 6.68937 24.1232 6.6882C24.4549 6.68702 24.7725 6.55413 25.0062 6.31875C25.24 6.08337 25.3706 5.76479 25.3694 5.43308C25.3683 5.10138 25.2354 4.78372 25 4.55L21.3625 0.9375C21.1283 0.704686 20.8115 0.574009 20.4813 0.574009C20.151 0.574009 19.8342 0.704686 19.6 0.9375L13.6 6.9375L10.1125 3.4375C9.8783 3.20469 9.56148 3.07401 9.23125 3.07401C8.90102 3.07401 8.5842 3.20469 8.35 3.4375L3 8.7875V1.75C3 1.41848 2.8683 1.10054 2.63388 0.866116C2.39946 0.631696 2.08152 0.5 1.75 0.5C1.41848 0.5 1.10054 0.631696 0.866116 0.866116C0.631696 1.10054 0.5 1.41848 0.5 1.75V24.25C0.5 24.5815 0.631696 24.8995 0.866116 25.1339C1.10054 25.3683 1.41848 25.5 1.75 25.5H24.25C24.5815 25.5 24.8995 25.3683 25.1339 25.1339C25.3683 24.8995 25.5 24.5815 25.5 24.25C25.5 23.9185 25.3683 23.6005 25.1339 23.3661C24.8995 23.1317 24.5815 23 24.25 23Z" fill="black" fill-opacity="0.5"/>
</svg>
